<svg xmlns="http://www.w3.org/2000/svg" enable-background="new 0 0 512 512" viewBox="0 0 512 512"><g display="none"><path fill="#336E60" d="M250.5,235.5c-57.4,0-104,44.8-104,100v4h48v-2.2c0-29.7,25.1-53.8,56-53.8
		s56,24.1,56,53.8v2.2h48v-4C354.5,280.3,307.9,235.5,250.5,235.5z"/><path fill="#C05645" d="M250.5,131.5c-110.5,0-200,89.5-200,200v8h48v-6.2c0-85,68.1-153.8,152-153.8
		s152,68.9,152,153.8v6.2h48v-8C450.5,221,360.9,131.5,250.5,131.5z"/><path fill="#E8C861" d="M250.5,179.5c-83.9,0-152,68.9-152,153.8v6.2h48v-4c0-55.2,46.6-100,104-100
		s104,44.8,104,100v4h48v-6.2C402.5,248.4,334.4,179.5,250.5,179.5z"/><path fill="#79B7A9" d="M148.4,347.5c0,17.7-14.3,32-32,32h-24h-16h-32c-17.7,0-32-14.3-32-32
		c0-15.2,10.6-27.9,24.9-31.1c3.3-14.2,15.9-24.9,31.1-24.9c14.9,0,27.3,10.2,30.9,24h17.1C134.1,315.5,148.4,329.8,148.4,347.5z
		 M450.5,299.5h-12.8c-7.3-14.2-22.1-24-39.2-24c-17.2,0-32.1,9.9-39.3,24.3c-16.1,1.7-28.7,15.1-28.7,31.7c0,17.7,14.3,32,32,32h16
		h32h40c17.7,0,32-14.3,32-32C482.5,313.8,468.2,299.5,450.5,299.5z"/><path fill="#E8C861" d="M250.5,107.5c-4.4,0-8-3.6-8-8v-48c0-4.4,3.6-8,8-8s8,3.6,8,8v48
		C258.5,103.9,254.9,107.5,250.5,107.5z M128.1,137.2c3.1-3.1,3.1-8.2,0-11.3l-24-24c-3.1-3.1-8.2-3.1-11.3,0s-3.1,8.2,0,11.3l24,24
		c1.6,1.6,3.6,2.3,5.7,2.3S126.6,138.7,128.1,137.2z M384.1,137.2l24-24c3.1-3.1,3.1-8.2,0-11.3s-8.2-3.1-11.3,0l-24,24
		c-3.1,3.1-3.1,8.2,0,11.3c1.6,1.6,3.6,2.3,5.7,2.3S382.6,138.7,384.1,137.2z"/></g><path fill="#336E60" d="M250.5,235.5c-57.4,0-104,44.8-104,100v4h48v-2.2c0-29.7,25.1-53.8,56-53.8s56,24.1,56,53.8v2.2h48v-4
		C354.5,280.3,307.9,235.5,250.5,235.5z"/><path fill="#C05645" d="M250.5,131.5c-110.5,0-200,89.5-200,200v8h48v-6.2c0-85,68.1-153.8,152-153.8s152,68.9,152,153.8v6.2h48v-8
		C450.5,221,360.9,131.5,250.5,131.5z"/><path fill="#E8C861" d="M250.5,179.5c-83.9,0-152,68.9-152,153.8v6.2h48v-4c0-55.2,46.6-100,104-100s104,44.8,104,100v4h48v-6.2
		C402.5,248.4,334.4,179.5,250.5,179.5z"/><path fill="#79B7A9" d="M148.4,347.5c0,17.7-14.3,32-32,32h-24h-16h-32c-17.7,0-32-14.3-32-32c0-15.2,10.6-27.9,24.9-31.1
		c3.3-14.2,15.9-24.9,31.1-24.9c14.9,0,27.3,10.2,30.9,24h17.1C134.1,315.5,148.4,329.8,148.4,347.5z M450.5,299.5h-12.8
		c-7.3-14.2-22.1-24-39.2-24c-17.2,0-32.1,9.9-39.3,24.3c-16.1,1.7-28.7,15.1-28.7,31.7c0,17.7,14.3,32,32,32h16h32h40
		c17.7,0,32-14.3,32-32C482.5,313.8,468.2,299.5,450.5,299.5z"/><path d="M454.5 288.4C435.8 190.5 351.1 120 250.5 120c-99.1 0-184.1 69.8-203.7 166.4-7.2 4.7-13 11.6-16 20C15.1 312.1 4.5 326.9 4.5 344c0 22.1 17.9 40 40 40h72c22.1 0 40-17.9 40-40h38.1c4.4 0 8-3.6 8-8v-2.2c0-2.2.2-4.5.6-6.9 3.4-22.2 23.7-39 47.4-39 25.7 0 46.7 19.1 47.9 43.6 0 .3.1.7.1 1 .1.4 0 .8 0 1.2v2.2c0 4.4 3.6 8 8 8h19.4c6.2 14.1 20.2 24 36.6 24h88c22.1 0 40-17.9 40-40C490.5 307.3 474.7 290.5 454.5 288.4zM250.5 136c89.2 0 164.9 60 186.1 144.8-9.7-10.6-23.4-16.8-38.1-16.8-.6 0-1.2.1-1.8.1-.3-.6-.5-1.2-.8-1.8-.2-.5-.3-.8-.4-1-.5-1.1-1-2.2-1.6-3.3-.1-.3-.3-.6-.4-.9-.1-.3-.3-.5-.4-.8-.5-1-1-2-1.4-2.8-1-2.1-2.2-4.1-3.4-6.2l-.7-1.1c-.7-1.2-1.4-2.4-2-3.1-2.3-3.7-4.5-7-6.4-9.4-.9-1.4-1.9-2.7-2.8-3.8-1.4-1.8-2.8-3.5-4.3-5.3-.2-.3-.5-.6-.8-.9-.3-.4-.7-.7-1-1.1l0 0c-.9-1-1.7-2-2.4-2.7-1-1.1-2-2.2-2.8-3-1.8-2-3.8-4-5.7-5.7-2.3-2.2-4.7-4.3-7-6.2-1.8-1.6-3.8-3.1-5.5-4.4-1.9-1.4-3.7-2.8-5.6-4.1-1.4-1-2.6-1.8-3.6-2.4-.5-.3-1-.7-1.5-1.1-.2-.2-.5-.4-.7-.5l-.8-.5c-.9-.5-1.8-1.1-2.6-1.5l-1.2-.7c-1.6-1-3.3-1.9-4.4-2.4-1.3-.8-2.7-1.5-4.1-2.2l-2.5-1.2c-1.1-.5-2.2-1.1-2.7-1.2-1.1-.6-2.2-1.1-3.4-1.6l-.9-.4c-2.4-1-4.9-2.1-7.2-2.8-2-.8-4.1-1.5-6.9-2.4l-1.2-.4c-1.5-.5-3-.9-4.4-1.3-1.9-.5-3.7-1-5.4-1.4-1.6-.4-3.2-.8-4.7-1.1-1.2-.3-2.3-.5-3.2-.6L276 170c-4.3-.7-9.1-1.2-14.3-1.6l-4.2-.3c-4.8-.2-9.6-.2-14.5 0-.1 0-.8 0-.9.1-2.3.2-4.6.3-6.7.5-2.9.2-5.9.7-8.5 1-1.1.1-2.3.3-3 .5-2 .3-4 .7-6 1.2-.6.1-1.1.2-1.6.3l-4.4 1c-1.7.4-3.3.9-5 1.4-.3.1-.5.1-.8.2-1.7.5-3.4 1-5.1 1.6 0 0 0 0 0 0 0 0-.1 0-.1 0-1.8.6-3.7 1.2-5.1 1.8-2.1.7-4.1 1.5-5.4 2.2-1.7.6-3.4 1.3-4.4 1.8-2 .8-3.9 1.8-5.9 2.7l-.9.5c-2.7 1.4-5.4 2.8-7.6 4.2-1.8.9-3.5 2-5 2.9-7.8 4.9-15.1 10.4-21.6 16.2-.1.1-.2.2-.3.3 0 0-.1.1-.1.1-1.6 1.5-3.2 2.9-4.8 4.5-1.3 1.3-2.5 2.5-3.6 3.7-2 2-3.9 4.1-6 6.5l-3.7 4.5c-1.2 1.4-2.3 2.8-3.4 4.3-1 1.4-2 2.7-2.9 4-1.2 1.7-2.4 3.5-3.5 5.3-.4.6-.8 1.1-1 1.4-1 1.5-2 3-2.8 4.5-1.4 2.5-2.9 5-4.1 7.4-1.1 2.1-2.2 4.2-3.1 6.3-1.2 2.6-2.4 5.3-3.2 7.6-.9 2.1-1.7 4.1-2.4 6.1-2 5.6-3.3 10-4.4 14.3-.1.2-.3 1-.3 1.2 0 .1-.1.2-.1.4-7.2-6.6-16.6-10.5-26.8-10.5-1.3 0-2.5.2-3.8.3C86.2 196 162.3 136 250.5 136zM354.1 289.1c-.3.1-.5.2-.7.2-1.1-2.4-2.1-4.6-3.1-6.4 0 0 0-.1-.1-.1 0 0 0 0 0 0-.1-.2-.3-.6-.3-.7l-.4-.7c-1.3-2.5-2.9-5-4.2-7-1.4-2.2-2.9-4.2-4.4-6.3l-.5-.7-.8-1c-1.5-1.8-2.9-3.5-4.4-5.2-.1-.2-.3-.3-.4-.4-1.6-1.8-3.4-3.6-5.1-5.2-2.2-2.1-4.5-4.1-6.9-6.1-2.1-1.7-4.4-3.4-6.6-5-.1-.1-.3-.2-.4-.3-1.1-.8-2.2-1.5-3-2-2.1-1.4-4.3-2.6-6.4-3.8-2.2-1.2-4.5-2.4-6.6-3.5-.1 0-.1-.1-.2-.1-.1-.1-.3-.1-.4-.2-2-.9-3.9-1.7-6-2.6-.2-.1-.4-.2-.6-.2-2.4-.9-4.7-1.7-6.5-2.2-1.4-.5-2.9-1-3.8-1.2-.6-.2-1.1-.4-1.7-.5-1.1-.3-2.3-.6-3.3-.8-1.5-.4-3-.7-4.3-1-2.9-.6-5.9-1.1-8.6-1.4-1.2-.2-2.6-.3-4-.4l-1.1-.1c-1.1-.1-2-.2-2.9-.2-4.9-.2-10.3-.2-14 .2-.9 0-1.7.1-2.6.2-1.8.2-3.5.3-5.3.6-1.8.3-3.6.5-5.2.9-1.5.3-3 .6-3.9.8-2.2.5-4.3 1-5.8 1.5-1.5.3-2.8.7-3.7 1.1-1.1.3-2.1.7-2.7.9-1.4.4-2.7.9-3.6 1.3-.1 0-.2.1-.3.1-1.1.4-2.2.8-3.9 1.5-.1 0-.2.1-.4.2 0 0-.1 0-.1 0-.2.1-.5.2-.6.3-.3.1-.5.2-.8.3-1.3.6-2.6 1.2-3.8 1.8l-.6.3-2.3 1.1c-.9.5-1.8 1-2.8 1.5l-3.3 1.9c0 0-.1 0-.1 0l-.1.1c-1.3.8-2.7 1.7-4.1 2.6-5.6 3.8-10.7 7.9-14.9 12 0 0 0 0 0 0-.1.1-.1.1-.2.2 0 0-.7.6-.7.7-.2.2-.3.3-.4.4-.2.2-.3.3-.5.5l-.6.6c-4.4 4.5-8.2 9.1-11.5 13.8-.6.9-1.2 1.8-1.9 2.8-.4.7-.9 1.4-1.4 2.2-.7 1.1-1.4 2.2-1.6 2.7-.6 1-1.2 2-1.7 3l-.7 1.2c-.9 1.6-1.6 3.3-2.4 4.9l0 .1c-.3.4-.5.9-.7 1.4 0 .1 0 .1-.1.1-.4 1-.8 2-1.2 3-.4.9-.8 1.9-1.3 3.3-.5 1.2-.8 2.4-1.1 3.3 0 0 0 0 0 .1 0 .1-.1.2-.1.3l0 0c-.5 1.5-.9 2.8-1.1 3.7-.4 1.2-.7 2.5-1 3.5-.3 1.2-.6 2.4-.8 3.4-.1.5-.2 1-.3 1.5-6.7-5.1-14.9-8.2-24-8.2h-7.7l0-.2c.2-1.4.5-2.7.9-4.7.3-1.7.7-3.4 1.1-5.1.1-.2.3-1 .4-1.2.9-3.8 2.1-7.8 4-12.9.6-1.7 1.2-3.3 2.1-5.3.9-2.4 2-4.7 3-7 .8-1.8 1.7-3.5 2.8-5.5 1.1-2.2 2.4-4.5 3.8-6.8.7-1.3 1.5-2.5 2.7-4.3.2-.3.5-.6.7-1 .9-1.6 1.9-3.1 3-4.6.8-1.2 1.7-2.4 2.8-3.8.8-1.1 1.6-2.1 2.8-3.5l3.7-4.5c1.6-1.9 3.4-3.7 5.3-5.6 1.1-1.2 2.3-2.4 3.4-3.5 1.4-1.4 2.8-2.7 4.4-4.1 6-5.4 12.5-10.3 19.7-14.8 1.2-.8 2.5-1.5 4.2-2.4 2.2-1.3 4.5-2.6 6.9-3.8l1-.5c1.6-.8 3.1-1.6 5.3-2.5 1-.5 2-.9 3.8-1.6 1.5-.7 3.1-1.3 5-2 1.5-.6 3-1.1 4.5-1.6 0 0 .1 0 .1 0 .1 0 .2-.1.3-.1 1.3-.4 2.5-.8 3.8-1.2.3-.1.6-.1.9-.2 1.7-.5 3.4-1 4.9-1.4l4.1-.9c.4 0 .8-.1 1.2-.2 1.8-.4 3.6-.8 5.7-1.1.6-.1 1.2-.2 2.2-.3 2.6-.4 5.3-.8 8-1 2.1-.2 4.2-.4 6.6-.5 4.5-.1 9-.1 13.4 0l3.7.2c4.6.3 8.9.8 12.5 1.4l3.8.7c.8.1 1.5.2 2.6.5 1.4.3 2.7.6 4.3 1 1.7.4 3.3.8 5.1 1.3 1.3.3 2.6.7 3.8 1.1l1.5.5c1.9.6 3.8 1.3 5.9 2.1 2.1.7 4.3 1.6 6.3 2.5l1 .4c.7.3 1.4.6 2.9 1.3.9.4 1.8.8 2.6 1.2l2.1 1.1c1.1.5 2.1 1.1 3.7 2 1.2.6 2.5 1.3 3.7 2.1l1.5.8c.8.4 1.5.9 2.2 1.4l.5.3c.7.5 1.4 1 2.1 1.5.2.1.5.3.7.4.9.5 1.7 1.1 2.7 1.8 1.7 1.2 3.4 2.4 5.2 3.8 1.6 1.2 3.2 2.5 4.8 3.8 2.2 1.8 4.3 3.7 6.5 5.8 1.7 1.5 3.2 3.1 5 5 .7.7 1.4 1.4 2.4 2.5.7.8 1.4 1.6 2.1 2.4.3.3.6.6.8.9.1.2.5.5.7.8.1.1.2.2.2.3 1.4 1.6 2.6 3.2 4.1 5.1.6.8 1.2 1.5 2.2 2.9 1 1.3 1.9 2.6 2.9 4.1 1 1.4 1.9 2.9 2.9 4.5l2.6 4.2c1 1.6 1.9 3.2 2.8 5.1.6 1.1 1.1 2.2 1.6 3.3.1.2.2.4.3.6.1.3.3.6.5.9.3.6.6 1.1.9 1.6C369.7 271.2 360.3 278.8 354.1 289.1zM116.5 368h-72c-13.2 0-24-10.8-24-24 0-11.2 7.7-20.8 18.6-23.3 3-.7 5.3-3 6-6 2.5-11 12.1-18.6 23.3-18.6 10.9 0 20.4 7.4 23.1 18 .9 3.5 4.1 6 7.7 6h17.1c13.2 0 24 10.8 24 24S129.7 368 116.5 368zM322.5 328h-8.4c-3-31.6-30.4-56-63.6-56-31.5 0-58.7 22.6-63.2 52.3-.2 1.2-.4 2.4-.5 3.7h-32.2c0-.2 0-.5 0-.7.1-2.7.4-5.2.8-8.2.1-.7.2-1.4.3-2.1.1-.6.2-1.2.4-1.9.2-1.3.5-2.6.8-4.1.2-.8.4-1.6.7-2.6l1.2-4c.3-.8.5-1.7 1.1-3.1.3-.7.5-1.4.9-2.1.1-.3.2-.5.3-.8.2-.6.4-1.2.7-1.8.1-.2.2-.5.4-.7l.5-1c.6-1.2 1.1-2.5 1.9-4l.6-1.1c.4-.7.8-1.4 1.6-2.8.3-.6.7-1.2 1.1-1.8l.6-1c.7-1.2 1.5-2.4 2.3-3.6 2.8-4 6-7.8 9.9-11.9l.5-.5c.1-.1.3-.3.4-.4.2-.2.4-.4.8-.8 3.8-3.7 8.2-7.2 13-10.5 1.1-.7 2.2-1.4 3.4-2.1l7.4-4.1 3.6-1.8c.1 0 .1 0 .1-.1.4-.2.7-.3.9-.4.1 0 .2-.1.3-.1l4.1-1.6c.7-.3 1.3-.6 2.7-1 .6-.2 1.3-.5 2.2-.7l3.2-1c1.6-.5 3.3-.9 5.4-1.4 1-.3 2.1-.5 3.2-.7 1.6-.3 3.1-.5 4.5-.7 1.6-.2 3-.4 5-.6l1.4-.1c4.1-.4 7.8-.3 12.9-.1.6 0 1.3.1 2 .1l1.4.1c.9.1 1.8.1 2.9.3 2.5.3 5 .6 7.7 1.2 1.2.2 2.4.5 3.8.8.9.2 1.8.4 2.6.6.4.1.5.2.8.2.3.1.8.3 1.1.3.3.1.7.2 1.1.3.4.1.9.3 1.4.5 2 .7 4 1.3 6 2 .1 0 .2.1.2.1 1.7.7 3.4 1.4 5.1 2.1.2.1.3.2.5.2.1.1.3.1.4.2 1.9.9 3.7 1.9 5.6 2.9 1.8 1 3.6 2 5.8 3.5.8.5 1.5 1 2.3 1.6.3.2.6.5 1 .6 1.7 1.2 3.5 2.6 5 3.8 2 1.7 4.1 3.5 6.1 5.4 1.5 1.4 2.9 2.9 4.1 4.3.2.3.5.5.8.8 1.3 1.4 2.5 2.9 4 4.8 0 0 .6.8.6.8 1.2 1.6 2.5 3.3 3.8 5.4 1.1 1.7 2.2 3.5 3.3 5.3 0 .1.1.1.1.2l.9 1.8c.9 1.7 1.7 3.5 2.5 5.4.1.1.1.2.1.4C328.9 303.4 322.5 314.9 322.5 328zM450.5 352h-88c-13.2 0-24-10.8-24-24 0-12.2 9.2-22.4 21.5-23.7 2.7-.3 5.1-1.9 6.3-4.4 6.2-12.3 18.5-19.9 32.2-19.9 13.6 0 25.8 7.5 32 19.6 1.4 2.7 4.1 4.4 7.1 4.4h12.8c13.2 0 24 10.8 24 24S463.8 352 450.5 352zM250.5 104c4.4 0 8-3.6 8-8V48c0-4.4-3.6-8-8-8s-8 3.6-8 8v48C242.5 100.4 246.1 104 250.5 104zM116.9 133.7c1.6 1.6 3.6 2.3 5.7 2.3s4.1-.8 5.7-2.3c3.1-3.1 3.1-8.2 0-11.3l-24-24c-3.1-3.1-8.2-3.1-11.3 0s-3.1 8.2 0 11.3L116.9 133.7zM378.5 136c2 0 4.1-.8 5.7-2.3l24-24c3.1-3.1 3.1-8.2 0-11.3s-8.2-3.1-11.3 0l-24 24c-3.1 3.1-3.1 8.2 0 11.3C374.4 135.2 376.5 136 378.5 136z"/><path d="M454.5 288.4C435.8 190.5 351.1 120 250.5 120c-99.1 0-184.1 69.8-203.7 166.4-7.2 4.7-13 11.6-16 20C15.1 312.1 4.5 326.9 4.5 344c0 22.1 17.9 40 40 40h72c22.1 0 40-17.9 40-40h38.1c4.4 0 8-3.6 8-8v-2.2c0-2.2.2-4.5.6-6.9 3.4-22.2 23.7-39 47.4-39 25.7 0 46.7 19.1 47.9 43.6 0 .3.1.7.1 1 .1.4 0 .8 0 1.2v2.2c0 4.4 3.6 8 8 8h19.4c6.2 14.1 20.2 24 36.6 24h88c22.1 0 40-17.9 40-40C490.5 307.3 474.7 290.5 454.5 288.4zM250.5 136c89.2 0 164.9 60 186.1 144.8-9.7-10.6-23.4-16.8-38.1-16.8-.6 0-1.2.1-1.8.1-.3-.6-.5-1.2-.8-1.8-.2-.5-.3-.8-.4-1-.5-1.1-1-2.2-1.6-3.3-.1-.3-.3-.6-.4-.9-.1-.3-.3-.5-.4-.8-.5-1-1-2-1.4-2.8-1-2.1-2.2-4.1-3.4-6.2l-.7-1.1c-.7-1.2-1.4-2.4-2-3.1-2.3-3.7-4.5-7-6.4-9.4-.9-1.4-1.9-2.7-2.8-3.8-1.4-1.8-2.8-3.5-4.3-5.3-.2-.3-.5-.6-.8-.9-.3-.4-.7-.7-1-1.1l0 0c-.9-1-1.7-2-2.4-2.7-1-1.1-2-2.2-2.8-3-1.8-2-3.8-4-5.7-5.7-2.3-2.2-4.7-4.3-7-6.2-1.8-1.6-3.8-3.1-5.5-4.4-1.9-1.4-3.7-2.8-5.6-4.1-1.4-1-2.6-1.8-3.6-2.4-.5-.3-1-.7-1.5-1.1-.2-.2-.5-.4-.7-.5l-.8-.5c-.9-.5-1.8-1.1-2.6-1.5l-1.2-.7c-1.6-1-3.3-1.9-4.4-2.4-1.3-.8-2.7-1.5-4.1-2.2l-2.5-1.2c-1.1-.5-2.2-1.1-2.7-1.2-1.1-.6-2.2-1.1-3.4-1.6l-.9-.4c-2.4-1-4.9-2.1-7.2-2.8-2-.8-4.1-1.5-6.9-2.4l-1.2-.4c-1.5-.5-3-.9-4.4-1.3-1.9-.5-3.7-1-5.4-1.4-1.6-.4-3.2-.8-4.7-1.1-1.2-.3-2.3-.5-3.2-.6L276 170c-4.3-.7-9.1-1.2-14.3-1.6l-4.2-.3c-4.8-.2-9.6-.2-14.5 0-.1 0-.8 0-.9.1-2.3.2-4.6.3-6.7.5-2.9.2-5.9.7-8.5 1-1.1.1-2.3.3-3 .5-2 .3-4 .7-6 1.2-.6.1-1.1.2-1.6.3l-4.4 1c-1.7.4-3.3.9-5 1.4-.3.1-.5.1-.8.2-1.7.5-3.4 1-5.1 1.6 0 0 0 0 0 0 0 0-.1 0-.1 0-1.8.6-3.7 1.2-5.1 1.8-2.1.7-4.1 1.5-5.4 2.2-1.7.6-3.4 1.3-4.4 1.8-2 .8-3.9 1.8-5.9 2.7l-.9.5c-2.7 1.4-5.4 2.8-7.6 4.2-1.8.9-3.5 2-5 2.9-7.8 4.9-15.1 10.4-21.6 16.2-.1.1-.2.2-.3.3 0 0-.1.1-.1.1-1.6 1.5-3.2 2.9-4.8 4.5-1.3 1.3-2.5 2.5-3.6 3.7-2 2-3.9 4.1-6 6.5l-3.7 4.5c-1.2 1.4-2.3 2.8-3.4 4.3-1 1.4-2 2.7-2.9 4-1.2 1.7-2.4 3.5-3.5 5.3-.4.6-.8 1.1-1 1.4-1 1.5-2 3-2.8 4.5-1.4 2.5-2.9 5-4.1 7.4-1.1 2.1-2.2 4.2-3.1 6.3-1.2 2.6-2.4 5.3-3.2 7.6-.9 2.1-1.7 4.1-2.4 6.1-2 5.6-3.3 10-4.4 14.3-.1.2-.3 1-.3 1.2 0 .1-.1.2-.1.4-7.2-6.6-16.6-10.5-26.8-10.5-1.3 0-2.5.2-3.8.3C86.2 196 162.3 136 250.5 136zM354.1 289.1c-.3.1-.5.2-.7.2-1.1-2.4-2.1-4.6-3.1-6.4 0 0 0-.1-.1-.1 0 0 0 0 0 0-.1-.2-.3-.6-.3-.7l-.4-.7c-1.3-2.5-2.9-5-4.2-7-1.4-2.2-2.9-4.2-4.4-6.3l-.5-.7-.8-1c-1.5-1.8-2.9-3.5-4.4-5.2-.1-.2-.3-.3-.4-.4-1.6-1.8-3.4-3.6-5.1-5.2-2.2-2.1-4.5-4.1-6.9-6.1-2.1-1.7-4.4-3.4-6.6-5-.1-.1-.3-.2-.4-.3-1.1-.8-2.2-1.5-3-2-2.1-1.4-4.3-2.6-6.4-3.8-2.2-1.2-4.5-2.4-6.6-3.5-.1 0-.1-.1-.2-.1-.1-.1-.3-.1-.4-.2-2-.9-3.9-1.7-6-2.6-.2-.1-.4-.2-.6-.2-2.4-.9-4.7-1.7-6.5-2.2-1.4-.5-2.9-1-3.8-1.2-.6-.2-1.1-.4-1.7-.5-1.1-.3-2.3-.6-3.3-.8-1.5-.4-3-.7-4.3-1-2.9-.6-5.9-1.1-8.6-1.4-1.2-.2-2.6-.3-4-.4l-1.1-.1c-1.1-.1-2-.2-2.9-.2-4.9-.2-10.3-.2-14 .2-.9 0-1.7.1-2.6.2-1.8.2-3.5.3-5.3.6-1.8.3-3.6.5-5.2.9-1.5.3-3 .6-3.9.8-2.2.5-4.3 1-5.8 1.5-1.5.3-2.8.7-3.7 1.1-1.1.3-2.1.7-2.7.9-1.4.4-2.7.9-3.6 1.3-.1 0-.2.1-.3.1-1.1.4-2.2.8-3.9 1.5-.1 0-.2.1-.4.2 0 0-.1 0-.1 0-.2.1-.5.2-.6.3-.3.1-.5.2-.8.3-1.3.6-2.6 1.2-3.8 1.8l-.6.3-2.3 1.1c-.9.5-1.8 1-2.8 1.5l-3.3 1.9c0 0-.1 0-.1 0l-.1.1c-1.3.8-2.7 1.7-4.1 2.6-5.6 3.8-10.7 7.9-14.9 12 0 0 0 0 0 0-.1.1-.1.1-.2.2 0 0-.7.6-.7.7-.2.2-.3.3-.4.4-.2.2-.3.3-.5.5l-.6.6c-4.4 4.5-8.2 9.1-11.5 13.8-.6.9-1.2 1.8-1.9 2.8-.4.7-.9 1.4-1.4 2.2-.7 1.1-1.4 2.2-1.6 2.7-.6 1-1.2 2-1.7 3l-.7 1.2c-.9 1.6-1.6 3.3-2.4 4.9l0 .1c-.3.4-.5.9-.7 1.4 0 .1 0 .1-.1.1-.4 1-.8 2-1.2 3-.4.9-.8 1.9-1.3 3.3-.5 1.2-.8 2.4-1.1 3.3 0 0 0 0 0 .1 0 .1-.1.2-.1.3l0 0c-.5 1.5-.9 2.8-1.1 3.7-.4 1.2-.7 2.5-1 3.5-.3 1.2-.6 2.4-.8 3.4-.1.5-.2 1-.3 1.5-6.7-5.1-14.9-8.2-24-8.2h-7.7l0-.2c.2-1.4.5-2.7.9-4.7.3-1.7.7-3.4 1.1-5.1.1-.2.3-1 .4-1.2.9-3.8 2.1-7.8 4-12.9.6-1.7 1.2-3.3 2.1-5.3.9-2.4 2-4.7 3-7 .8-1.8 1.7-3.5 2.8-5.5 1.1-2.2 2.4-4.5 3.8-6.8.7-1.3 1.5-2.5 2.7-4.3.2-.3.5-.6.7-1 .9-1.6 1.9-3.1 3-4.6.8-1.2 1.7-2.4 2.8-3.8.8-1.1 1.6-2.1 2.8-3.5l3.7-4.5c1.6-1.9 3.4-3.7 5.3-5.6 1.1-1.2 2.3-2.4 3.4-3.5 1.4-1.4 2.8-2.7 4.4-4.1 6-5.4 12.5-10.3 19.7-14.8 1.2-.8 2.5-1.5 4.2-2.4 2.2-1.3 4.5-2.6 6.9-3.8l1-.5c1.6-.8 3.1-1.6 5.3-2.5 1-.5 2-.9 3.8-1.6 1.5-.7 3.1-1.3 5-2 1.5-.6 3-1.1 4.5-1.6 0 0 .1 0 .1 0 .1 0 .2-.1.3-.1 1.3-.4 2.5-.8 3.8-1.2.3-.1.6-.1.9-.2 1.7-.5 3.4-1 4.9-1.4l4.1-.9c.4 0 .8-.1 1.2-.2 1.8-.4 3.6-.8 5.7-1.1.6-.1 1.2-.2 2.2-.3 2.6-.4 5.3-.8 8-1 2.1-.2 4.2-.4 6.6-.5 4.5-.1 9-.1 13.4 0l3.7.2c4.6.3 8.9.8 12.5 1.4l3.8.7c.8.1 1.5.2 2.6.5 1.4.3 2.7.6 4.3 1 1.7.4 3.3.8 5.1 1.3 1.3.3 2.6.7 3.8 1.1l1.5.5c1.9.6 3.8 1.3 5.9 2.1 2.1.7 4.3 1.6 6.3 2.5l1 .4c.7.3 1.4.6 2.9 1.3.9.4 1.8.8 2.6 1.2l2.1 1.1c1.1.5 2.1 1.1 3.7 2 1.2.6 2.5 1.3 3.7 2.1l1.5.8c.8.4 1.5.9 2.2 1.4l.5.3c.7.5 1.4 1 2.1 1.5.2.1.5.3.7.4.9.5 1.7 1.1 2.7 1.8 1.7 1.2 3.4 2.4 5.2 3.8 1.6 1.2 3.2 2.5 4.8 3.8 2.2 1.8 4.3 3.7 6.5 5.8 1.7 1.5 3.2 3.1 5 5 .7.7 1.4 1.4 2.4 2.5.7.8 1.4 1.6 2.1 2.4.3.3.6.6.8.9.1.2.5.5.7.8.1.1.2.2.2.3 1.4 1.6 2.6 3.2 4.1 5.1.6.8 1.2 1.5 2.2 2.9 1 1.3 1.9 2.6 2.9 4.1 1 1.4 1.9 2.9 2.9 4.5l2.6 4.2c1 1.6 1.9 3.2 2.8 5.1.6 1.1 1.1 2.2 1.6 3.3.1.2.2.4.3.6.1.3.3.6.5.9.3.6.6 1.1.9 1.6C369.7 271.2 360.3 278.8 354.1 289.1zM116.5 368h-72c-13.2 0-24-10.8-24-24 0-11.2 7.7-20.8 18.6-23.3 3-.7 5.3-3 6-6 2.5-11 12.1-18.6 23.3-18.6 10.9 0 20.4 7.4 23.1 18 .9 3.5 4.1 6 7.7 6h17.1c13.2 0 24 10.8 24 24S129.7 368 116.5 368zM322.5 328h-8.4c-3-31.6-30.4-56-63.6-56-31.5 0-58.7 22.6-63.2 52.3-.2 1.2-.4 2.4-.5 3.7h-32.2c0-.2 0-.5 0-.7.1-2.7.4-5.2.8-8.2.1-.7.2-1.4.3-2.1.1-.6.2-1.2.4-1.9.2-1.3.5-2.6.8-4.1.2-.8.4-1.6.7-2.6l1.2-4c.3-.8.5-1.7 1.1-3.1.3-.7.5-1.4.9-2.1.1-.3.2-.5.3-.8.2-.6.4-1.2.7-1.8.1-.2.2-.5.4-.7l.5-1c.6-1.2 1.1-2.5 1.9-4l.6-1.1c.4-.7.8-1.4 1.6-2.8.3-.6.7-1.2 1.1-1.8l.6-1c.7-1.2 1.5-2.4 2.3-3.6 2.8-4 6-7.8 9.9-11.9l.5-.5c.1-.1.3-.3.4-.4.2-.2.4-.4.8-.8 3.8-3.7 8.2-7.2 13-10.5 1.1-.7 2.2-1.4 3.4-2.1l7.4-4.1 3.6-1.8c.1 0 .1 0 .1-.1.4-.2.7-.3.9-.4.1 0 .2-.1.3-.1l4.1-1.6c.7-.3 1.3-.6 2.7-1 .6-.2 1.3-.5 2.2-.7l3.2-1c1.6-.5 3.3-.9 5.4-1.4 1-.3 2.1-.5 3.2-.7 1.6-.3 3.1-.5 4.5-.7 1.6-.2 3-.4 5-.6l1.4-.1c4.1-.4 7.8-.3 12.9-.1.6 0 1.3.1 2 .1l1.4.1c.9.1 1.8.1 2.9.3 2.5.3 5 .6 7.7 1.2 1.2.2 2.4.5 3.8.8.9.2 1.8.4 2.6.6.4.1.5.2.8.2.3.1.8.3 1.1.3.3.1.7.2 1.1.3.4.1.9.3 1.4.5 2 .7 4 1.3 6 2 .1 0 .2.1.2.1 1.7.7 3.4 1.4 5.1 2.1.2.1.3.2.5.2.1.1.3.1.4.2 1.9.9 3.7 1.9 5.6 2.9 1.8 1 3.6 2 5.8 3.5.8.5 1.5 1 2.3 1.6.3.2.6.5 1 .6 1.7 1.2 3.5 2.6 5 3.8 2 1.7 4.1 3.5 6.1 5.4 1.5 1.4 2.9 2.9 4.1 4.3.2.3.5.5.8.8 1.3 1.4 2.5 2.9 4 4.8 0 0 .6.8.6.8 1.2 1.6 2.5 3.3 3.8 5.4 1.1 1.7 2.2 3.5 3.3 5.3 0 .1.1.1.1.2l.9 1.8c.9 1.7 1.7 3.5 2.5 5.4.1.1.1.2.1.4C328.9 303.4 322.5 314.9 322.5 328zM450.5 352h-88c-13.2 0-24-10.8-24-24 0-12.2 9.2-22.4 21.5-23.7 2.7-.3 5.1-1.9 6.3-4.4 6.2-12.3 18.5-19.9 32.2-19.9 13.6 0 25.8 7.5 32 19.6 1.4 2.7 4.1 4.4 7.1 4.4h12.8c13.2 0 24 10.8 24 24S463.8 352 450.5 352zM250.5 104c4.4 0 8-3.6 8-8V48c0-4.4-3.6-8-8-8s-8 3.6-8 8v48C242.5 100.4 246.1 104 250.5 104zM116.9 133.7c1.6 1.6 3.6 2.3 5.7 2.3s4.1-.8 5.7-2.3c3.1-3.1 3.1-8.2 0-11.3l-24-24c-3.1-3.1-8.2-3.1-11.3 0s-3.1 8.2 0 11.3L116.9 133.7zM378.5 136c2 0 4.1-.8 5.7-2.3l24-24c3.1-3.1 3.1-8.2 0-11.3s-8.2-3.1-11.3 0l-24 24c-3.1 3.1-3.1 8.2 0 11.3C374.4 135.2 376.5 136 378.5 136z" display="none"/><path d="M250.5 139.5c89.2 0 164.9 60 186.1 144.8-9.7-10.6-23.4-16.8-38.1-16.8-.6 0-1.2.1-1.8.1-.3-.6-.5-1.2-.8-1.8-.2-.5-.3-.8-.4-1-.5-1.1-1-2.2-1.6-3.3-.1-.3-.3-.6-.4-.9-.1-.3-.3-.5-.4-.8-.5-1-1-2-1.4-2.8-1-2.1-2.2-4.1-3.4-6.2l-.7-1.1c-.7-1.2-1.4-2.4-2-3.1-2.3-3.7-4.5-7-6.4-9.4-.9-1.4-1.9-2.7-2.8-3.8-1.4-1.8-2.8-3.5-4.3-5.3-.2-.3-.5-.6-.8-.9-.3-.4-.7-.7-1-1.1l0 0c-.9-1-1.7-2-2.4-2.7-1-1.1-2-2.2-2.8-3-1.8-2-3.8-4-5.7-5.7-2.3-2.2-4.7-4.3-7-6.2-1.8-1.6-3.8-3.1-5.5-4.4-1.9-1.4-3.7-2.8-5.6-4.1-1.4-1-2.6-1.8-3.6-2.4-.5-.3-1-.7-1.5-1.1-.2-.2-.5-.4-.7-.5l-.8-.5c-.9-.5-1.8-1.1-2.6-1.5l-1.2-.7c-1.6-1-3.3-1.9-4.4-2.4-1.3-.8-2.7-1.5-4.1-2.2l-2.5-1.2c-1.1-.5-2.2-1.1-2.7-1.2-1.1-.6-2.2-1.1-3.4-1.6l-.9-.4c-2.4-1-4.9-2.1-7.2-2.8-2-.8-4.1-1.5-6.9-2.4l-1.2-.4c-1.5-.5-3-.9-4.4-1.3-1.9-.5-3.7-1-5.4-1.4-1.6-.4-3.2-.8-4.7-1.1-1.2-.3-2.3-.5-3.2-.6l-3.8-.7c-4.3-.7-9.1-1.2-14.3-1.6l-4.2-.3c-4.8-.2-9.6-.2-14.5 0-.1 0-.8 0-.9.1-2.3.2-4.6.3-6.7.5-2.9.2-5.9.7-8.5 1-1.1.1-2.3.3-3 .5-2 .3-4 .7-6 1.2-.6.1-1.1.2-1.6.3l-4.4 1c-1.7.4-3.3.9-5 1.4-.3.1-.5.1-.8.2-1.7.5-3.4 1-5.1 1.6 0 0 0 0 0 0 0 0-.1 0-.1 0-1.8.6-3.7 1.2-5.1 1.8-2.1.7-4.1 1.5-5.4 2.2-1.7.6-3.4 1.3-4.4 1.8-2 .8-3.9 1.8-5.9 2.7l-.9.5c-2.7 1.4-5.4 2.8-7.6 4.2-1.8.9-3.5 2-5 2.9-7.8 4.9-15.1 10.4-21.6 16.2-.1.1-.2.2-.3.3 0 0-.1.1-.1.1-1.6 1.5-3.2 2.9-4.8 4.5-1.3 1.3-2.5 2.5-3.6 3.7-2 2-3.9 4.1-6 6.5l-3.7 4.5c-1.2 1.4-2.3 2.8-3.4 4.3-1 1.4-2 2.7-2.9 4-1.2 1.7-2.4 3.5-3.5 5.3-.4.6-.8 1.1-1 1.4-1 1.5-2 3-2.8 4.5-1.4 2.5-2.9 5-4.1 7.4-1.1 2.1-2.2 4.2-3.1 6.3-1.2 2.6-2.4 5.3-3.2 7.6-.9 2.1-1.7 4.1-2.4 6.1-2 5.6-3.3 10-4.4 14.3-.1.2-.3 1-.3 1.2 0 .1-.1.2-.1.4-7.2-6.6-16.6-10.5-26.8-10.5-1.3 0-2.5.2-3.8.3C86.1 199.5 162.3 139.5 250.5 139.5zM354.1 292.6c-.3.1-.5.2-.7.2-1.1-2.4-2.1-4.6-3.1-6.4 0 0 0-.1-.1-.1 0 0 0 0 0 0-.1-.2-.3-.6-.3-.7l-.4-.7c-1.3-2.5-2.9-5-4.2-7-1.4-2.2-2.9-4.2-4.4-6.3l-.5-.7-.8-1c-1.5-1.8-2.9-3.5-4.4-5.2-.1-.2-.3-.3-.4-.4-1.6-1.8-3.4-3.6-5.1-5.2-2.2-2.1-4.5-4.1-6.9-6.1-2.1-1.7-4.4-3.4-6.6-5-.1-.1-.3-.2-.4-.3-1.1-.8-2.2-1.5-3-2-2.1-1.4-4.3-2.6-6.4-3.8-2.2-1.2-4.5-2.4-6.6-3.5-.1 0-.1-.1-.2-.1-.1-.1-.3-.1-.4-.2-2-.9-3.9-1.7-6-2.6-.2-.1-.4-.2-.6-.2-2.4-.9-4.7-1.7-6.5-2.2-1.4-.5-2.9-1-3.8-1.2-.6-.2-1.1-.4-1.7-.5-1.1-.3-2.3-.6-3.3-.8-1.5-.4-3-.7-4.3-1-2.9-.6-5.9-1.1-8.6-1.4-1.2-.2-2.6-.3-4-.4l-1.1-.1c-1.1-.1-2-.2-2.9-.2-4.9-.2-10.3-.2-14 .2-.9 0-1.7.1-2.6.2-1.8.2-3.5.3-5.3.6-1.8.3-3.6.5-5.2.9-1.5.3-3 .6-3.9.8-2.2.5-4.3 1-5.8 1.5-1.5.3-2.8.7-3.7 1.1-1.1.3-2.1.7-2.7.9-1.4.4-2.7.9-3.6 1.3-.1 0-.2.1-.3.1-1.1.4-2.2.8-3.9 1.5-.1 0-.2.1-.4.2 0 0-.1 0-.1 0-.2.1-.5.2-.6.3-.3.1-.5.2-.8.3-1.3.6-2.6 1.2-3.8 1.8l-.6.3-2.3 1.1c-.9.5-1.8 1-2.8 1.5l-3.3 1.9c0 0-.1 0-.1 0l-.1.1c-1.3.8-2.7 1.7-4.1 2.6-5.6 3.8-10.7 7.9-14.9 12 0 0 0 0 0 0-.1.1-.1.1-.2.2 0 0-.7.6-.7.7-.2.2-.3.3-.4.4-.2.2-.3.3-.5.5l-.6.6c-4.4 4.5-8.2 9.1-11.5 13.8-.6.9-1.2 1.8-1.9 2.8-.4.7-.9 1.4-1.4 2.2-.7 1.1-1.4 2.2-1.6 2.7-.6 1-1.2 2-1.7 3l-.7 1.2c-.9 1.6-1.6 3.3-2.4 4.9l0 .1c-.3.4-.5.9-.7 1.4 0 .1 0 .1-.1.1-.4 1-.8 2-1.2 3-.4.9-.8 1.9-1.3 3.3-.5 1.2-.8 2.4-1.1 3.3 0 0 0 0 0 .1 0 .1-.1.2-.1.3l0 0c-.5 1.5-.9 2.8-1.1 3.7-.4 1.2-.7 2.5-1 3.5-.3 1.2-.6 2.4-.8 3.4-.1.5-.2 1-.3 1.5-6.7-5.1-14.9-8.2-24-8.2h-7.7l0-.2c.2-1.4.5-2.7.9-4.7.3-1.7.7-3.4 1.1-5.1.1-.2.3-1 .4-1.2.9-3.8 2.1-7.8 4-12.9.6-1.7 1.2-3.3 2.1-5.3.9-2.4 2-4.7 3-7 .8-1.8 1.7-3.5 2.8-5.5 1.1-2.2 2.4-4.5 3.8-6.8.7-1.3 1.5-2.5 2.7-4.3.2-.3.5-.6.7-1 .9-1.6 1.9-3.1 3-4.6.8-1.2 1.7-2.4 2.8-3.8.8-1.1 1.6-2.1 2.8-3.5l3.7-4.5c1.6-1.9 3.4-3.7 5.3-5.6 1.1-1.2 2.3-2.4 3.4-3.5 1.4-1.4 2.8-2.7 4.4-4.1 6-5.4 12.5-10.3 19.7-14.8 1.2-.8 2.5-1.5 4.2-2.4 2.2-1.3 4.5-2.6 6.9-3.8l1-.5c1.6-.8 3.1-1.6 5.3-2.5 1-.5 2-.9 3.8-1.6 1.5-.7 3.1-1.3 5-2 1.5-.6 3-1.1 4.5-1.6 0 0 .1 0 .1 0 .1 0 .2-.1.3-.1 1.3-.4 2.5-.8 3.8-1.2.3-.1.6-.1.9-.2 1.7-.5 3.4-1 4.9-1.4l4.1-.9c.4 0 .8-.1 1.2-.2 1.8-.4 3.6-.8 5.7-1.1.6-.1 1.2-.2 2.2-.3 2.6-.4 5.3-.8 8-1 2.1-.2 4.2-.4 6.6-.5 4.5-.1 9-.1 13.4 0l3.7.2c4.6.3 8.9.8 12.5 1.4l3.8.7c.8.1 1.5.2 2.6.5 1.4.3 2.7.6 4.3 1 1.7.4 3.3.8 5.1 1.3 1.3.3 2.6.7 3.8 1.1l1.5.5c1.9.6 3.8 1.3 5.9 2.1 2.1.7 4.3 1.6 6.3 2.5l1 .4c.7.3 1.4.6 2.9 1.3.9.4 1.8.8 2.6 1.2l2.1 1.1c1.1.5 2.1 1.1 3.7 2 1.2.6 2.5 1.3 3.7 2.1l1.5.8c.8.4 1.5.9 2.2 1.4l.5.3c.7.5 1.4 1 2.1 1.5.2.1.5.3.7.4.9.5 1.7 1.1 2.7 1.8 1.7 1.2 3.4 2.4 5.2 3.8 1.6 1.2 3.2 2.5 4.8 3.8 2.2 1.8 4.3 3.7 6.5 5.8 1.7 1.5 3.2 3.1 5 5 .7.7 1.4 1.4 2.4 2.5.7.8 1.4 1.6 2.1 2.4.3.3.6.6.8.9.1.2.5.5.7.8.1.1.2.2.2.3 1.4 1.6 2.6 3.2 4.1 5.1.6.8 1.2 1.5 2.2 2.9 1 1.3 1.9 2.6 2.9 4.1 1 1.4 1.9 2.9 2.9 4.5l2.6 4.2c1 1.6 1.9 3.2 2.8 5.1.6 1.1 1.1 2.2 1.6 3.3.1.2.2.4.3.6.1.3.3.6.5.9.3.6.6 1.1.9 1.6C369.7 274.7 360.3 282.3 354.1 292.6zM116.5 371.5h-72c-13.2 0-24-10.8-24-24 0-11.2 7.7-20.8 18.6-23.3 3-.7 5.3-3 6-6 2.5-11 12.1-18.6 23.3-18.6 10.9 0 20.4 7.4 23.1 18 .9 3.5 4.1 6 7.7 6h17.1c13.2 0 24 10.8 24 24S129.7 371.5 116.5 371.5zM322.5 331.5h-8.4c-3-31.6-30.4-56-63.6-56-31.5 0-58.7 22.6-63.2 52.3-.2 1.2-.4 2.4-.5 3.7h-32.2c0-.2 0-.5 0-.7.1-2.7.4-5.2.8-8.2.1-.7.2-1.4.3-2.1.1-.6.2-1.2.4-1.9.2-1.3.5-2.6.8-4.1.2-.8.4-1.6.7-2.6l1.2-4c.3-.8.5-1.7 1.1-3.1.3-.7.5-1.4.9-2.1.1-.3.2-.5.3-.8.2-.6.4-1.2.7-1.8.1-.2.2-.5.4-.7l.5-1c.6-1.2 1.1-2.5 1.9-4l.6-1.1c.4-.7.8-1.4 1.6-2.8.3-.6.7-1.2 1.1-1.8l.6-1c.7-1.2 1.5-2.4 2.3-3.6 2.8-4 6-7.8 9.9-11.9l.5-.5c.1-.1.3-.3.4-.4.2-.2.4-.4.8-.8 3.8-3.7 8.2-7.2 13-10.5 1.1-.7 2.2-1.4 3.4-2.1l7.4-4.1 3.6-1.8c.1 0 .1 0 .1-.1.4-.2.7-.3.9-.4.1 0 .2-.1.3-.1l4.1-1.6c.7-.3 1.3-.6 2.7-1 .6-.2 1.3-.5 2.2-.7l3.2-1c1.6-.5 3.3-.9 5.4-1.4 1-.3 2.1-.5 3.2-.7 1.6-.3 3.1-.5 4.5-.7 1.6-.2 3-.4 5-.6l1.4-.1c4.1-.4 7.8-.3 12.9-.1.6 0 1.3.1 2 .1l1.4.1c.9.1 1.8.1 2.9.3 2.5.3 5 .6 7.7 1.2 1.2.2 2.4.5 3.8.8.9.2 1.8.4 2.6.6.4.1.5.2.8.2.3.1.8.3 1.1.3.3.1.7.2 1.1.3.4.1.9.3 1.4.5 2 .7 4 1.3 6 2 .1 0 .2.1.2.1 1.7.7 3.4 1.4 5.1 2.1.2.1.3.2.5.2.1.1.3.1.4.2 1.9.9 3.7 1.9 5.6 2.9 1.8 1 3.6 2 5.8 3.5.8.5 1.5 1 2.3 1.6.3.2.6.5 1 .6 1.7 1.2 3.5 2.6 5 3.8 2 1.7 4.1 3.5 6.1 5.4 1.5 1.4 2.9 2.9 4.1 4.3.2.3.5.5.8.8 1.3 1.4 2.5 2.9 4 4.8 0 0 .6.8.6.8 1.2 1.6 2.5 3.3 3.8 5.4 1.1 1.7 2.2 3.5 3.3 5.3 0 .1.1.1.1.2l.9 1.8c.9 1.7 1.7 3.5 2.5 5.4.1.1.1.2.1.4C328.9 306.9 322.5 318.4 322.5 331.5zM450.5 355.5h-88c-13.2 0-24-10.8-24-24 0-12.2 9.2-22.4 21.5-23.7 2.7-.3 5.1-1.9 6.3-4.4 6.2-12.3 18.5-19.9 32.2-19.9 13.6 0 25.8 7.5 32 19.6 1.4 2.7 4.1 4.4 7.1 4.4h12.8c13.2 0 24 10.8 24 24S463.8 355.5 450.5 355.5zM250.5 107.5c4.4 0 8-3.6 8-8v-48c0-4.4-3.6-8-8-8s-8 3.6-8 8v48C242.5 103.9 246.1 107.5 250.5 107.5zM116.9 137.2c1.6 1.6 3.6 2.3 5.7 2.3s4.1-.8 5.7-2.3c3.1-3.1 3.1-8.2 0-11.3l-24-24c-3.1-3.1-8.2-3.1-11.3 0s-3.1 8.2 0 11.3L116.9 137.2zM378.5 139.5c2 0 4.1-.8 5.7-2.3l24-24c3.1-3.1 3.1-8.2 0-11.3s-8.2-3.1-11.3 0l-24 24c-3.1 3.1-3.1 8.2 0 11.3C374.4 138.7 376.5 139.5 378.5 139.5z" display="none"/></svg>